<svg id="visual" viewBox="0 0 1366 768" width="1366" height="768" xmlns="http://www.w3.org/2000/svg" xmlns:xlink="http://www.w3.org/1999/xlink" version="1.1"><path d="M0 388L32.5 412C65 436 130 484 195 510.2C260 536.3 325 540.7 390 533.5C455 526.3 520 507.7 585.2 506C650.3 504.3 715.7 519.7 780.8 519.7C846 519.7 911 504.3 976 480.2C1041 456 1106 423 1171 428.7C1236 434.3 1301 478.7 1333.5 500.8L1366 523L1366 769L1333.5 769C1301 769 1236 769 1171 769C1106 769 1041 769 976 769C911 769 846 769 780.8 769C715.7 769 650.3 769 585.2 769C520 769 455 769 390 769C325 769 260 769 195 769C130 769 65 769 32.5 769L0 769Z" fill="#fa7268"></path><path d="M0 531L32.5 524.2C65 517.3 130 503.7 195 495C260 486.3 325 482.7 390 494.5C455 506.3 520 533.7 585.2 549.3C650.3 565 715.7 569 780.8 554.8C846 540.7 911 508.3 976 507.2C1041 506 1106 536 1171 550.3C1236 564.7 1301 563.3 1333.5 562.7L1366 562L1366 769L1333.5 769C1301 769 1236 769 1171 769C1106 769 1041 769 976 769C911 769 846 769 780.8 769C715.7 769 650.3 769 585.2 769C520 769 455 769 390 769C325 769 260 769 195 769C130 769 65 769 32.5 769L0 769Z" fill="#eb5967"></path><path d="M0 568L32.5 572.2C65 576.3 130 584.7 195 590.8C260 597 325 601 390 603.7C455 606.3 520 607.7 585.2 617.3C650.3 627 715.7 645 780.8 644.8C846 644.7 911 626.3 976 618C1041 609.7 1106 611.3 1171 605.5C1236 599.7 1301 586.3 1333.5 579.7L1366 573L1366 769L1333.5 769C1301 769 1236 769 1171 769C1106 769 1041 769 976 769C911 769 846 769 780.8 769C715.7 769 650.3 769 585.2 769C520 769 455 769 390 769C325 769 260 769 195 769C130 769 65 769 32.5 769L0 769Z" fill="#da3f67"></path><path d="M0 714L32.5 700C65 686 130 658 195 645.7C260 633.3 325 636.7 390 645.5C455 654.3 520 668.7 585.2 667C650.3 665.3 715.7 647.7 780.8 644C846 640.3 911 650.7 976 661.5C1041 672.3 1106 683.7 1171 690.5C1236 697.3 1301 699.7 1333.5 700.8L1366 702L1366 769L1333.5 769C1301 769 1236 769 1171 769C1106 769 1041 769 976 769C911 769 846 769 780.8 769C715.7 769 650.3 769 585.2 769C520 769 455 769 390 769C325 769 260 769 195 769C130 769 65 769 32.5 769L0 769Z" fill="#c62368"></path></svg>